<svg width="40" height="41" viewBox="0 0 40 41" fill="none" xmlns="http://www.w3.org/2000/svg">
<g id="logo">
<path id="Vector" d="M20.0006 19.1659C15.7466 19.1659 9.71506 25.7423 9.71506 29.8934C9.71506 31.7631 11.1513 32.88 13.5582 32.88C16.1746 32.88 17.9023 31.5365 20.0006 31.5365C22.1172 31.5365 23.8497 32.88 26.443 32.88C28.8499 32.88 30.2862 31.7631 30.2862 29.8934C30.2862 25.7423 24.2547 19.1659 20.0006 19.1659ZM12.1107 18.4904C11.5536 16.6342 9.8372 15.4321 8.27723 15.8049C6.71725 16.1778 5.90459 17.9847 6.46172 19.8409C7.01885 21.6971 8.73526 22.8993 10.2952 22.5264C11.8552 22.1536 12.6679 20.3466 12.1107 18.4904ZM16.6492 17.3772C18.3067 16.9411 19.136 14.7019 18.5017 12.3759C17.8674 10.0498 16.0096 8.51825 14.3521 8.95431C12.6947 9.39037 11.8654 11.6296 12.4997 13.9557C13.1339 16.2817 14.9923 17.8138 16.6492 17.3772ZM31.7235 15.8055C30.1635 15.4326 28.4476 16.6347 27.89 18.4909C27.3328 20.3472 28.1455 22.1541 29.7055 22.527C31.2654 22.8998 32.9813 21.6977 33.539 19.8415C34.0961 17.9852 33.2834 16.1783 31.7235 15.8055ZM23.352 17.3772C25.0095 17.8133 26.8673 16.2817 27.5016 13.9557C28.1358 11.6296 27.3066 9.39091 25.6491 8.95431C23.9916 8.51771 22.1338 10.0498 21.4995 12.3759C20.8652 14.7019 21.6945 16.9411 23.352 17.3772Z" fill="#F3F3F3"/>
<rect x="1" y="1.88" width="38" height="38" rx="19" stroke="#F3F3F3" stroke-width="2"/>
</g>
</svg>
