<svg width="32" height="33" viewBox="0 0 32 33" fill="none" xmlns="http://www.w3.org/2000/svg">
<g id="logo">
<path id="Vector" d="M16.0006 14.4059C11.7466 14.4059 5.71506 20.9823 5.71506 25.1334C5.71506 27.003 7.15129 28.12 9.55822 28.12C12.1746 28.12 13.9023 26.7764 16.0006 26.7764C18.1172 26.7764 19.8497 28.12 22.443 28.12C24.8499 28.12 26.2862 27.003 26.2862 25.1334C26.2862 20.9823 20.2547 14.4059 16.0006 14.4059ZM8.11074 13.7304C7.5536 11.8742 5.8372 10.6721 4.27723 11.0449C2.71725 11.4178 1.90459 13.2247 2.46172 15.0809C3.01885 16.9371 4.73526 18.1393 6.29523 17.7664C7.85521 17.3936 8.66787 15.5866 8.11074 13.7304ZM12.6492 12.6172C14.3067 12.1811 15.136 9.94189 14.5017 7.61585C13.8674 5.28982 12.0096 3.75824 10.3521 4.1943C8.69466 4.63036 7.86538 6.86962 8.49966 9.19565C9.13394 11.5217 10.9923 13.0538 12.6492 12.6172ZM27.7235 11.0454C26.1635 10.6726 24.4476 11.8747 23.89 13.7309C23.3328 15.5872 24.1455 17.3941 25.7055 17.7669C27.2654 18.1398 28.9813 16.9377 29.539 15.0815C30.0961 13.2252 29.2834 11.4183 27.7235 11.0454ZM19.352 12.6172C21.0095 13.0533 22.8673 11.5217 23.5016 9.19565C24.1358 6.86962 23.3066 4.6309 21.6491 4.1943C19.9916 3.7577 18.1338 5.28982 17.4995 7.61585C16.8652 9.94189 17.6945 12.1811 19.352 12.6172Z" fill="#F3F3F3"/>
<rect x="1" y="1.12" width="30" height="30" rx="15" stroke="#F3F3F3" stroke-width="2"/>
</g>
</svg>
